<svg xmlns="http://www.w3.org/2000/svg" viewBox="0 0 130.32 159.12"><defs><style>.cls-1{fill:#fff;}.cls-2{isolation:isolate;}</style></defs><g id="FZ"><path class="cls-1" d="M198,149.31v36.45H180.28v-73L192,101h28.77v16.12H198v16.34h21v15.82Z" transform="translate(-161.76 -76.32)"/><path class="cls-1" d="M228.15,185.76V171.7l25.61-54.55H229.91V101h39.2l5.27,13.42L249.07,169.7H273.5v16.06Z" transform="translate(-161.76 -76.32)"/></g><g id="Rectangle_1" data-name="Rectangle 1" class="cls-2"><g id="Rectangle_1-2" data-name="Rectangle 1"><path class="cls-1" d="M172.56,193.68a42.81,42.81,0,0,0,9.84,12.24c7.42,6.2,18,11,18,11V193.68Z" transform="translate(-161.76 -76.32)"/></g></g><g id="Rectangle_1_copy" data-name="Rectangle 1 copy" class="cls-2"><g id="Rectangle_1_copy-2" data-name="Rectangle 1 copy"><path class="cls-1" d="M209,193.68V221s9.59,3.83,18.17,7.07c8.92-3.43,17.59-6.83,17.59-6.83v-27.6Z" transform="translate(-161.76 -76.32)"/></g></g><g id="Rectangle_1_copy_2" data-name="Rectangle 1 copy 2" class="cls-2"><g id="Rectangle_1_copy_2-2" data-name="Rectangle 1 copy 2"><path class="cls-1" d="M253.44,194.88V217.2s10.24-4.81,17.52-10.8a42.7,42.7,0,0,0,9.6-11.52Z" transform="translate(-161.76 -76.32)"/></g></g><g id="_61" data-name="61" class="cls-2"><g id="_61-2" data-name="61"><path class="cls-1" d="M226.92,79.49l62.16,21.2v82c-5.54,27.83-29.18,37.1-61.94,49.58-33-12.58-56.85-21.8-62.38-49.58v-82l62.16-21.2m0-3.17L161.76,98.55v84.39c5.8,29.94,31.17,39.46,65.38,52.5,34.22-13,59.14-22.57,64.94-52.5V98.55L226.92,76.32Z" transform="translate(-161.76 -76.32)"/></g></g></svg>